<svg width="23" height="23" viewBox="0 0 23 23" fill="none" xmlns="http://www.w3.org/2000/svg">
  <path d="M22.2812 11.1406C22.2812 17.2949 17.2859 22.2812 11.1227 22.2812C6.01055 22.2812 1.70703 18.8537 0.386328 14.1773L4.66289 15.9428C4.95039 17.3848 6.23066 18.4764 7.75801 18.4764C9.51895 18.4764 10.9879 17.0209 10.9115 15.1746L14.7074 12.4703C17.0479 12.5287 19.0109 10.633 19.0109 8.27012C19.0109 5.95215 17.1242 4.06992 14.8018 4.06992C12.4793 4.06992 10.5926 5.95664 10.5926 8.27012V8.32402L7.9332 12.1738C7.23691 12.1334 6.5541 12.3266 5.9791 12.7174L0 10.2467C0.458203 4.51016 5.26035 0 11.1227 0C17.2859 0 22.2812 4.98633 22.2812 11.1406ZM6.99434 16.9041L5.62422 16.3381C5.87599 16.8609 6.31072 17.2732 6.84609 17.4971C8.05449 18.0002 9.44258 17.4252 9.9457 16.2213C10.1883 15.6373 10.1928 14.9949 9.9502 14.4109C9.70762 13.827 9.25391 13.3688 8.66992 13.1262C8.09043 12.8836 7.47051 12.8926 6.92246 13.0992L8.3375 13.6832C9.22695 14.0516 9.64922 15.0713 9.27637 15.9607C8.90352 16.8547 7.88379 17.2725 6.99434 16.9041ZM14.8018 11.0687C13.2564 11.0687 11.9986 9.81094 11.9986 8.27012C11.9986 6.7293 13.2564 5.47148 14.8018 5.47148C16.3471 5.47148 17.6049 6.7293 17.6049 8.27012C17.6049 9.81094 16.3516 11.0687 14.8018 11.0687ZM14.8063 10.368C15.9697 10.368 16.9131 9.42461 16.9131 8.26562C16.9131 7.10215 15.9697 6.16328 14.8063 6.16328C13.6428 6.16328 12.6994 7.10664 12.6994 8.26562C12.7039 9.42461 13.6473 10.368 14.8063 10.368Z" fill="white"/>
</svg>
